<svg width="1132" height="702" viewBox="0 0 1132 702" fill="none" xmlns="http://www.w3.org/2000/svg">
<path d="M1031.76 1H1131V701H1032.74" stroke="black" stroke-width="2"/>
<path d="M99.2609 1H0.999991V701H98.288" stroke="black" stroke-width="2"/>
<g clip-path="url(#clip0)">
<path d="M593.079 430.407L593.079 435.734L739.253 356.929L739.253 354.422L593.079 430.407Z" fill="black"/>
<path d="M538.871 430.094L538.871 435.734L392.541 356.146L392.854 354.265L538.871 430.094Z" fill="black"/>
<path fill-rule="evenodd" clip-rule="evenodd" d="M575.532 550.417C571.522 558.689 568.012 560.339 566.759 560.131C566.341 560.235 565.286 560.35 564.409 559.974L564.355 559.951L564.26 559.91C563.266 559.486 562.769 559.274 561.275 557.781C559.709 556.214 555.635 549.007 553.755 544.62C551.875 540.233 549.682 531.46 547.645 523.156C545.608 514.853 543.258 490.882 542.788 481.012C542.412 473.116 542.631 448.894 542.788 437.771L540.125 436.361L540.125 429.467L391.444 352.542L391.601 355.832C390.348 355.519 387.402 354.328 385.647 352.072C383.454 349.252 382.201 338.598 382.514 337.972C382.765 337.47 383.663 337.345 384.081 337.345L388.781 338.598L388.624 344.395L501.584 386.226L540.281 386.383L540.281 374.476L542.475 374.476C542.579 362.569 542.757 336.405 542.631 327.005C542.475 315.254 544.355 293.321 545.451 286.27C546.329 280.63 548.846 268.776 549.995 263.553C544.72 261.725 532.51 257.412 525.868 254.78C517.564 251.489 496.884 240.836 493.907 238.799C490.93 236.762 484.663 231.122 484.037 229.869C483.535 228.866 483.932 224.124 484.193 221.879L485.603 222.035L485.447 226.579L556.575 245.066L556.888 243.813L486.387 225.639L486.543 222.349L562.842 231.279C562.006 250.602 561.495 289.028 566.132 288.15C570.769 287.273 570.258 249.87 569.422 231.279L645.564 222.192L645.721 225.482L574.749 243.813L574.749 245.066L646.661 226.422L646.504 222.192L648.227 222.035C648.228 221.513 648.29 221.409 648.541 225.169C648.854 229.869 646.191 232.219 641.491 236.292C636.79 240.366 625.353 246.163 616.11 250.393C611.473 252.515 602.892 255.741 595.532 258.509C588.221 261.258 582.113 263.554 582.269 263.866C582.512 264.352 583.599 269.622 584.804 275.465C585.156 277.173 585.518 278.93 585.873 280.63C587.439 288.15 589.319 309.771 589.476 317.761C589.601 324.153 589.319 358.234 589.163 374.476L591.983 374.789L591.826 386.54L629.897 386.696L742.856 344.239L743.325 338.462C743.696 338.354 744.596 338.08 746.46 337.502C750.095 336.374 750.481 339.121 750.22 340.635C749.541 343.716 747.839 350.286 746.46 351.915C745.081 353.545 741.812 355.414 740.35 356.145L740.506 352.542L591.826 429.781L591.983 436.204L589.319 437.928C589.424 449.103 589.507 473.084 589.006 479.602C588.908 480.875 588.795 482.455 588.666 484.256C587.968 493.979 586.808 510.168 585.089 519.553C583.052 530.677 580.546 540.077 575.532 550.417ZM743.325 338.462C742.973 338.565 743.098 338.518 743.326 338.442L743.325 338.462ZM565.505 525.663L565.192 528.483C563.051 528.535 558.016 527.574 555.008 523.313C552 519.052 551.457 515.897 551.562 514.853C552.658 517.098 555.447 521.934 557.828 523.313C560.21 524.692 563.939 525.454 565.505 525.663ZM566.445 528.483L566.759 525.663C568.378 525.506 572.086 524.848 573.966 523.47C575.846 522.091 579.553 517.255 581.172 515.009C580.546 516.89 578.666 521.464 576.159 524.723C573.652 527.982 568.639 528.588 566.445 528.483Z" fill="black"/>
<path d="M612.507 426.334L621.593 421.321L621.593 429.781C621.646 431.4 622.314 434.575 624.57 434.324C626.826 434.073 627.077 429.102 626.92 426.647L627.39 418.344L635.537 413.957C635.641 418.448 635.882 428.151 636.007 431.034C636.132 433.917 635.851 440.8 635.694 443.881L612.977 443.724L612.507 426.334Z" fill="black"/>
<path d="M635.694 444.821L612.977 444.664C612.925 445.448 613.039 447.171 613.917 447.798C614.794 448.424 624.257 448.424 624.883 448.424C625.51 448.424 632.968 448.675 633.97 448.424C635.224 448.111 634.91 448.111 635.38 447.641C635.756 447.265 635.746 445.605 635.694 444.821Z" fill="black"/>
<path d="M564.409 559.974C565.286 560.35 566.341 560.235 566.759 560.131C568.012 560.339 571.522 558.689 575.532 550.417C580.546 540.077 583.052 530.677 585.089 519.553C586.808 510.168 587.968 493.979 588.666 484.256C588.795 482.455 588.908 480.875 589.006 479.602C589.507 473.084 589.424 449.103 589.319 437.928L591.983 436.204L591.826 429.781L740.506 352.542L740.35 356.145C741.812 355.414 745.081 353.545 746.46 351.915C747.839 350.286 749.541 343.716 750.22 340.635C750.481 339.121 750.095 336.374 746.46 337.502C744.596 338.08 743.696 338.354 743.325 338.462M564.409 559.974L564.355 559.951M564.409 559.974C564.391 559.966 564.373 559.959 564.355 559.951M743.325 338.462L742.856 344.239L629.897 386.696L591.826 386.54L591.983 374.789L589.163 374.476C589.319 358.234 589.601 324.153 589.476 317.761C589.319 309.771 587.439 288.15 585.873 280.63C585.518 278.93 585.156 277.173 584.804 275.465C583.599 269.622 582.512 264.352 582.269 263.866C582.113 263.554 588.221 261.258 595.532 258.509C602.892 255.741 611.473 252.515 616.11 250.393C625.353 246.163 636.79 240.366 641.491 236.292C646.191 232.219 648.854 229.869 648.541 225.169C648.29 221.409 648.228 221.513 648.227 222.035L646.504 222.192L646.661 226.422L574.749 245.066L574.749 243.813L645.721 225.482L645.564 222.192L569.422 231.279C570.258 249.87 570.769 287.273 566.132 288.15C561.495 289.028 562.006 250.602 562.842 231.279L486.543 222.349L486.387 225.639L556.888 243.813L556.575 245.066L485.447 226.579L485.603 222.035L484.193 221.879C483.932 224.124 483.535 228.866 484.037 229.869C484.663 231.122 490.93 236.762 493.907 238.799C496.884 240.836 517.564 251.489 525.868 254.78C532.51 257.412 544.72 261.725 549.995 263.553C548.846 268.776 546.329 280.63 545.451 286.27C544.355 293.321 542.475 315.254 542.631 327.005C542.757 336.405 542.579 362.569 542.475 374.476L540.281 374.476L540.281 386.383L501.584 386.226L388.624 344.395L388.781 338.598L384.081 337.345C383.663 337.345 382.765 337.47 382.514 337.972C382.201 338.598 383.454 349.252 385.647 352.072C387.402 354.328 390.348 355.519 391.601 355.832L391.444 352.542L540.125 429.467L540.125 436.361L542.788 437.771C542.631 448.894 542.412 473.116 542.788 481.012C543.258 490.882 545.608 514.853 547.645 523.156C549.682 531.46 551.875 540.233 553.755 544.62C555.635 549.007 559.709 556.214 561.275 557.781C562.769 559.274 563.266 559.486 564.26 559.91M743.325 338.462C742.973 338.565 743.098 338.518 743.326 338.442L743.325 338.462ZM564.355 559.951L564.26 559.91M564.355 559.951C564.322 559.937 564.291 559.924 564.26 559.91M593.079 435.734L593.079 430.407L739.253 354.422L739.253 356.929L593.079 435.734ZM538.871 435.734L538.871 430.094L392.854 354.265L392.541 356.145L538.871 435.734ZM565.505 525.663L565.192 528.483C563.051 528.535 558.017 527.574 555.008 523.313C552 519.052 551.457 515.897 551.562 514.853C552.658 517.098 555.447 521.934 557.828 523.313C560.21 524.692 563.939 525.454 565.505 525.663ZM566.759 525.663L566.445 528.483C568.639 528.588 573.652 527.982 576.159 524.723C578.666 521.464 580.546 516.89 581.172 515.009C579.553 517.255 575.846 522.091 573.966 523.47C572.086 524.848 568.378 525.506 566.759 525.663ZM612.507 426.334L621.593 421.32L621.593 429.781C621.646 431.4 622.314 434.575 624.57 434.324C626.826 434.073 627.077 429.102 626.92 426.647L627.39 418.344L635.537 413.957C635.641 418.448 635.882 428.151 636.007 431.034C636.132 433.917 635.851 440.8 635.694 443.881L612.977 443.724L612.507 426.334ZM635.694 444.821L612.977 444.664C612.925 445.448 613.039 447.171 613.917 447.798C614.794 448.424 624.257 448.424 624.884 448.424C625.51 448.424 632.968 448.675 633.97 448.424C635.224 448.111 634.91 448.111 635.38 447.641C635.756 447.265 635.746 445.604 635.694 444.821Z" stroke="black"/>
<path d="M666.245 397.35L674.705 392.65L675.018 402.99C675.123 405.183 675.018 408.944 677.838 408.944C680.422 408.944 680.345 403.617 680.502 399.387C680.627 396.003 680.972 391.292 681.128 389.36L688.178 385.443C688.596 390.143 689.432 400.17 689.432 402.677C689.432 405.183 689.223 414.166 689.118 418.344L666.558 418.03L666.245 397.35Z" fill="black"/>
<path d="M688.962 419.127L666.558 418.97C666.558 419.806 666.746 421.602 667.498 422.104C668.438 422.73 673.921 422.574 676.741 422.574C679.562 422.574 686.768 423.201 687.865 422.417C688.742 421.79 688.962 419.963 688.962 419.127Z" fill="black"/>
<path d="M666.245 397.35L674.705 392.65L675.018 402.99C675.123 405.183 675.018 408.944 677.838 408.944C680.422 408.944 680.345 403.617 680.502 399.387C680.627 396.003 680.972 391.292 681.128 389.36L688.178 385.443C688.596 390.143 689.432 400.17 689.432 402.677C689.432 405.183 689.223 414.166 689.118 418.344L666.558 418.03L666.245 397.35Z" stroke="black"/>
<path d="M688.962 419.127L666.558 418.97C666.558 419.806 666.746 421.602 667.498 422.104C668.438 422.73 673.921 422.574 676.741 422.574C679.562 422.574 686.768 423.201 687.865 422.417C688.742 421.79 688.962 419.963 688.962 419.127Z" stroke="black"/>
<path d="M519.287 426.177L510.984 421.634L510.357 430.094C510.148 431.556 509.355 434.418 507.851 434.167C505.97 433.854 505.187 432.131 505.03 427.587C504.905 423.953 504.56 419.806 504.404 418.187L496.884 414.114C496.622 418.97 496.1 429.373 496.1 432.131C496.1 434.888 496.414 440.904 496.57 443.568L518.974 443.724L519.287 426.177Z" fill="black"/>
<path d="M518.974 444.664L496.727 444.664C496.623 445.395 496.664 447.046 497.667 447.798C498.92 448.738 506.284 447.954 508.164 447.954C510.044 447.954 516.467 448.738 517.721 448.111C518.723 447.61 518.974 445.604 518.974 444.664Z" fill="black"/>
<path d="M465.549 419.127L442.989 419.127C442.937 419.91 442.714 421.437 444.086 422.417C445.182 423.2 451.433 422.574 454.583 422.574C458.029 422.574 462.782 423.253 464.453 422.417C465.455 421.916 465.497 420.119 465.549 419.127Z" fill="black"/>
<path d="M465.863 397.193L457.559 392.65L456.933 404.243C456.776 405.758 455.993 408.943 454.739 408.943C453.172 408.943 451.606 408.003 451.449 397.82C451.324 389.673 451.292 388.681 451.292 389.203L443.616 384.973C443.302 390.3 442.644 401.549 442.519 403.93C442.394 406.311 442.676 414.532 442.832 418.344L465.549 418.187L465.863 397.193Z" fill="black"/>
<path d="M519.287 426.177L510.984 421.634L510.357 430.094C510.148 431.556 509.355 434.418 507.851 434.167C505.97 433.854 505.187 432.131 505.03 427.587C504.905 423.953 504.56 419.806 504.404 418.187L496.884 414.114C496.622 418.97 496.1 429.373 496.1 432.131C496.1 434.888 496.414 440.904 496.57 443.568L518.974 443.724L519.287 426.177Z" stroke="black"/>
<path d="M518.974 444.664L496.727 444.664C496.623 445.395 496.664 447.046 497.667 447.798C498.92 448.738 506.284 447.954 508.164 447.954C510.044 447.954 516.467 448.738 517.721 448.111C518.723 447.61 518.974 445.604 518.974 444.664Z" stroke="black"/>
<path d="M465.549 419.127L442.989 419.127C442.937 419.91 442.714 421.437 444.086 422.417C445.182 423.2 451.433 422.574 454.583 422.574C458.029 422.574 462.782 423.253 464.453 422.417C465.455 421.916 465.497 420.119 465.549 419.127Z" stroke="black"/>
<path d="M465.863 397.193L457.559 392.65L456.933 404.243C456.776 405.758 455.993 408.943 454.739 408.943C453.172 408.943 451.606 408.003 451.449 397.82C451.324 389.673 451.292 388.681 451.292 389.203L443.616 384.973C443.302 390.3 442.644 401.549 442.519 403.93C442.394 406.311 442.676 414.532 442.832 418.344L465.549 418.187L465.863 397.193Z" stroke="black"/>
<path d="M630.367 374.633L630.367 385.286L741.916 343.612L742.23 338.912L695.855 353.639C695.646 350.714 694.853 344.928 693.349 345.179C691.845 345.429 691.155 352.072 690.998 355.362L657.235 366.093L652.242 367.68L630.367 374.633Z" fill="black"/>
<path d="M592.923 374.789L592.923 385.443L629.27 385.443L629.27 374.789L615.64 374.633C615.588 371.343 615.076 364.794 613.447 364.919C611.817 365.044 611.096 371.447 610.94 374.633L592.923 374.789Z" fill="black"/>
<path d="M502.837 374.946L502.837 385.286L539.028 385.443L539.028 374.476L521.324 374.319C521.063 371.134 520.228 364.762 518.974 364.762C517.721 364.762 516.781 371.238 516.467 374.476L502.837 374.946Z" fill="black"/>
<path d="M389.721 338.912L389.721 343.612L501.584 384.973L501.584 374.633L479.65 367.426C479.65 364.188 479.242 357.681 477.613 357.556C475.984 357.43 475.263 362.934 475.106 365.702L441.266 355.049C441.161 351.811 440.545 345.304 438.915 345.179C437.286 345.053 436.67 350.662 436.565 353.482L389.721 338.912Z" fill="black"/>
<path d="M657.235 366.093C657.053 363.091 656.312 357.148 654.808 357.399C653.304 357.65 652.471 364.358 652.242 367.68L657.235 366.093Z" fill="black"/>
<path d="M563.939 257.756C563.625 263.71 564.095 278.594 564.252 280.63C564.409 282.667 565.192 286.27 566.132 286.27C567.072 286.27 568.012 277.184 568.012 271.23C568.012 265.277 568.169 240.053 568.169 237.232C568.169 234.412 567.855 229.086 567.699 224.542C567.542 219.999 566.759 212.635 565.975 212.792C565.192 212.949 564.252 227.049 564.095 230.652C563.97 233.535 563.834 249.818 563.939 257.756Z" fill="black"/>
<path d="M657.235 366.093L690.998 355.362C691.155 352.072 691.845 345.429 693.349 345.179C694.853 344.928 695.646 350.714 695.855 353.639L742.23 338.912L741.916 343.612L630.367 385.286L630.367 374.633L652.242 367.68L657.235 366.093ZM657.235 366.093C657.053 363.091 656.312 357.148 654.808 357.399C653.304 357.65 652.471 364.358 652.242 367.68L657.235 366.093ZM657.235 366.093L652.242 367.68L657.235 366.093ZM389.721 338.912L389.721 343.612L501.584 384.973L501.584 374.633L479.65 367.426C479.65 364.188 479.242 357.681 477.613 357.556C475.984 357.43 475.263 362.934 475.106 365.702L441.265 355.049C441.161 351.811 440.545 345.304 438.915 345.179C437.286 345.053 436.67 350.662 436.565 353.482L389.721 338.912ZM502.837 374.946L502.837 385.286L539.028 385.443L539.028 374.476L521.324 374.319C521.063 371.134 520.227 364.762 518.974 364.762C517.721 364.762 516.781 371.238 516.467 374.476L502.837 374.946ZM592.923 374.789L592.923 385.443L629.27 385.443L629.27 374.789L615.64 374.633C615.588 371.343 615.076 364.794 613.447 364.919C611.817 365.044 611.096 371.447 610.94 374.633L592.923 374.789ZM563.939 257.756C563.625 263.71 564.095 278.594 564.252 280.63C564.409 282.667 565.192 286.27 566.132 286.27C567.072 286.27 568.012 277.183 568.012 271.23C568.012 265.276 568.169 240.053 568.169 237.232C568.169 234.412 567.855 229.086 567.699 224.542C567.542 219.999 566.759 212.635 565.975 212.792C565.192 212.949 564.252 227.049 564.095 230.652C563.97 233.535 563.834 249.818 563.939 257.756Z" stroke="black"/>
</g>
<defs>
<clipPath id="clip0">
<rect width="300" height="300" fill="white" transform="translate(778.264 351.132) rotate(135)"/>
</clipPath>
</defs>
</svg>
