<svg width="719" height="719" viewBox="0 0 719 719" fill="none" xmlns="http://www.w3.org/2000/svg">
<g clip-path="url(#clip0)">
<path d="M405.073 493.631L405.081 502.653L652.557 369.387L652.553 365.141L405.073 493.631Z" fill="black"/>
<path d="M313.255 493.02L313.264 502.573L65.2893 367.549L65.8173 364.365L313.255 493.02Z" fill="black"/>
<path fill-rule="evenodd" clip-rule="evenodd" d="M375.529 696.879C368.748 710.885 362.806 713.675 360.683 713.319C359.976 713.495 358.189 713.689 356.702 713.051L356.611 713.011L356.449 712.942C354.766 712.223 353.924 711.863 351.391 709.331C348.735 706.675 341.825 694.462 338.634 687.028C335.443 679.595 331.715 664.731 328.253 650.663C324.791 636.596 320.775 595.991 319.964 579.271C319.316 565.896 319.652 524.87 319.901 506.029L315.387 503.637L315.377 491.96L63.426 361.444L63.6962 367.017C61.5728 366.484 56.582 364.463 53.6066 360.639C49.8872 355.859 47.7485 337.812 48.2783 336.751C48.7022 335.902 50.2231 335.691 50.9311 335.692L58.8941 337.822L58.6373 347.64L250.032 418.661L315.579 418.983L315.561 398.815L319.276 398.818C319.436 378.65 319.698 334.334 319.472 318.411C319.189 298.508 322.341 261.359 324.188 249.419C325.666 239.867 329.912 219.791 331.851 210.946C322.914 207.843 302.226 200.518 290.971 196.05C276.901 190.465 241.856 172.389 236.811 168.935C231.766 165.481 221.143 155.918 220.08 153.794C219.229 152.095 219.894 144.064 220.333 140.261L222.722 140.528L222.463 148.224L342.969 179.642L343.498 177.52L224.054 146.633L224.314 141.06L353.563 156.299C352.177 189.027 351.367 254.113 359.22 252.634C367.074 251.154 366.152 187.8 364.709 156.309L493.666 141.029L493.936 146.602L373.75 177.546L373.752 179.669L495.53 148.196L495.258 141.031L498.177 140.768C498.177 139.884 498.283 139.707 498.713 146.076C499.25 154.037 494.743 158.014 486.787 164.907C478.832 171.8 459.469 181.601 443.818 188.753C435.967 192.341 421.438 197.793 408.975 202.469C396.595 207.115 386.253 210.996 386.518 211.525C386.929 212.347 388.778 221.275 390.828 231.175C391.427 234.068 392.043 237.044 392.646 239.925C395.311 252.665 398.527 289.289 398.804 302.823C399.026 313.651 398.599 371.377 398.357 398.887L403.134 399.422L402.886 419.325L467.372 419.646L658.642 347.897L659.427 338.113C660.055 337.931 661.578 337.469 664.736 336.492C670.89 334.586 671.549 339.24 671.109 341.805C669.964 347.023 667.09 358.148 664.757 360.906C662.424 363.664 656.889 366.826 654.414 368.062L654.674 361.958L402.95 492.567L403.225 503.448L398.716 506.363C398.909 525.293 399.086 565.913 398.247 576.951C398.083 579.108 397.893 581.783 397.677 584.833C396.511 601.303 394.568 628.721 391.671 644.615C388.238 663.454 384.006 679.372 375.529 696.879ZM659.427 338.113C658.83 338.287 659.042 338.208 659.429 338.079L659.427 338.113ZM358.509 654.936L357.982 659.712C354.356 659.797 345.827 658.162 340.726 650.94C335.624 643.717 334.7 638.373 334.875 636.605C336.736 640.41 341.467 648.605 345.502 650.944C349.538 653.283 355.855 654.58 358.509 654.936ZM360.105 659.714L360.632 654.938C363.374 654.675 369.653 653.566 372.836 651.233C376.018 648.901 382.291 640.715 385.03 636.914C383.972 640.097 380.794 647.843 376.553 653.359C372.312 658.875 363.821 659.894 360.105 659.714Z" fill="black"/>
<path d="M437.974 486.76L453.358 478.281L453.37 492.611C453.461 495.354 454.598 500.733 458.419 500.311C462.24 499.89 462.657 491.47 462.388 487.312L463.172 473.248L476.965 465.829C477.148 473.437 477.57 489.872 477.786 494.755C478.003 499.638 477.536 511.296 477.275 516.515L438.795 516.217L437.974 486.76Z" fill="black"/>
<path d="M477.276 518.108L438.797 517.809C438.71 519.136 438.907 522.055 440.394 523.118C441.881 524.18 457.909 524.194 458.971 524.195C460.032 524.196 472.664 524.632 474.362 524.209C476.485 523.68 475.954 523.679 476.749 522.884C477.386 522.248 477.365 519.435 477.276 518.108Z" fill="black"/>
<path d="M356.702 713.051C358.189 713.689 359.976 713.495 360.683 713.319C362.806 713.675 368.748 710.885 375.529 696.879C384.006 679.372 388.238 663.454 391.671 644.615C394.568 628.721 396.511 601.303 397.677 584.833C397.893 581.783 398.083 579.108 398.247 576.951C399.086 565.913 398.909 525.293 398.716 506.363L403.225 503.448L402.95 492.567L654.674 361.958L654.414 368.062C656.889 366.826 662.424 363.664 664.757 360.906C667.09 358.148 669.964 347.023 671.109 341.805C671.549 339.24 670.89 334.586 664.736 336.492C661.578 337.469 660.055 337.931 659.427 338.113M356.702 713.051L356.611 713.011M356.702 713.051C356.672 713.037 356.641 713.024 356.611 713.011M659.427 338.113L658.642 347.897L467.372 419.646L402.886 419.325L403.134 399.422L398.357 398.887C398.599 371.377 399.026 313.651 398.804 302.823C398.527 289.289 395.311 252.665 392.646 239.925C392.043 237.044 391.427 234.068 390.828 231.175C388.778 221.275 386.929 212.347 386.518 211.525C386.253 210.996 396.595 207.115 408.975 202.469C421.438 197.793 435.967 192.341 443.818 188.753C459.469 181.601 478.832 171.8 486.787 164.907C494.743 158.014 499.25 154.037 498.713 146.076C498.283 139.707 498.177 139.884 498.177 140.768L495.258 141.031L495.53 148.196L373.752 179.669L373.75 177.546L493.936 146.602L493.666 141.029L364.709 156.309C366.152 187.8 367.074 251.154 359.22 252.634C351.367 254.113 352.177 189.027 353.564 156.299L224.314 141.06L224.054 146.633L343.498 177.52L342.969 179.642L222.463 148.224L222.722 140.528L220.333 140.261C219.894 144.064 219.229 152.095 220.08 153.794C221.143 155.918 231.766 165.481 236.811 168.935C241.856 172.389 276.901 190.465 290.971 196.05C302.226 200.518 322.914 207.843 331.851 210.946C329.912 219.791 325.666 239.867 324.188 249.419C322.341 261.359 319.189 298.508 319.472 318.411C319.698 334.334 319.436 378.65 319.276 398.818L315.561 398.815L315.579 418.983L250.032 418.661L58.6373 347.64L58.8941 337.822L50.9312 335.692C50.2232 335.691 48.7022 335.902 48.2784 336.751C47.7485 337.812 49.8872 355.859 53.6066 360.639C56.5821 364.463 61.5728 366.484 63.6962 367.017L63.426 361.444L315.377 491.96L315.387 503.637L319.901 506.029C319.652 524.87 319.316 565.896 319.964 579.271C320.775 595.991 324.791 636.596 328.253 650.664C331.715 664.731 335.443 679.595 338.634 687.028C341.825 694.462 348.735 706.675 351.391 709.331C353.924 711.863 354.766 712.223 356.449 712.942M659.427 338.113C658.83 338.287 659.042 338.208 659.429 338.079L659.427 338.113ZM356.611 713.011L356.449 712.942M356.611 713.011C356.556 712.988 356.502 712.965 356.449 712.942M405.082 502.653L405.074 493.631L652.553 365.141L652.557 369.387L405.082 502.653ZM313.263 502.573L313.255 493.02L65.8169 364.365L65.2889 367.549L313.263 502.573ZM358.509 654.936L357.982 659.712C354.356 659.797 345.827 658.162 340.726 650.94C335.624 643.717 334.7 638.373 334.875 636.605C336.736 640.41 341.467 648.605 345.502 650.944C349.538 653.283 355.855 654.58 358.509 654.936ZM360.632 654.938L360.105 659.714C363.821 659.894 372.312 658.875 376.553 653.359C380.794 647.843 383.972 640.097 385.03 636.914C382.291 640.715 376.018 648.901 372.836 651.233C369.653 653.566 363.374 654.675 360.632 654.938ZM437.974 486.76L453.358 478.281L453.371 492.611C453.462 495.354 454.598 500.733 458.419 500.311C462.24 499.89 462.658 491.47 462.389 487.312L463.172 473.248L476.965 465.829C477.149 473.437 477.57 489.872 477.787 494.755C478.003 499.638 477.536 511.296 477.275 516.515L438.796 516.217L437.974 486.76ZM477.276 518.108L438.797 517.809C438.71 519.136 438.907 522.055 440.394 523.118C441.881 524.18 457.909 524.194 458.971 524.195C460.032 524.196 472.664 524.632 474.362 524.209C476.485 523.68 475.954 523.679 476.75 522.884C477.386 522.248 477.366 519.435 477.276 518.108Z" stroke="black"/>
<path d="M528.954 437.745L543.277 429.797L543.823 447.311C544.003 451.027 543.832 457.396 548.609 457.4C552.985 457.404 552.847 448.381 553.106 441.216C553.313 435.484 553.89 427.506 554.152 424.233L566.088 417.609C566.803 425.571 568.233 442.556 568.237 446.802C568.24 451.048 567.9 466.262 567.729 473.339L529.515 472.775L528.954 437.745Z" fill="black"/>
<path d="M567.464 474.665L529.516 474.367C529.517 475.782 529.838 478.825 531.113 479.676C532.706 480.738 541.994 480.481 546.77 480.485C551.547 480.49 563.755 481.562 565.612 480.236C567.097 479.176 567.466 476.08 567.464 474.665Z" fill="black"/>
<path d="M528.954 437.745L543.277 429.797L543.823 447.311C544.003 451.027 543.832 457.396 548.609 457.4C552.985 457.404 552.847 448.381 553.106 441.216C553.313 435.484 553.89 427.506 554.152 424.233L566.088 417.609C566.803 425.571 568.233 442.556 568.237 446.802C568.24 451.048 567.9 466.262 567.729 473.339L529.515 472.775L528.954 437.745Z" stroke="black"/>
<path d="M567.464 474.665L529.516 474.367C529.517 475.782 529.838 478.825 531.113 479.676C532.706 480.738 541.994 480.481 546.77 480.485C551.547 480.49 563.755 481.562 565.612 480.236C567.097 479.176 567.466 476.08 567.464 474.665Z" stroke="black"/>
<path d="M280.077 486.357L266.006 478.649L264.957 492.978C264.605 495.455 263.265 500.301 260.717 499.874C257.532 499.34 256.203 496.42 255.931 488.724C255.713 482.567 255.123 475.543 254.855 472.801L242.112 465.89C241.676 474.116 240.807 491.736 240.811 496.407C240.815 501.077 241.355 511.268 241.624 515.78L279.573 516.078L280.077 486.357Z" fill="black"/>
<path d="M279.574 517.67L241.891 517.637C241.715 518.875 241.788 521.671 243.488 522.946C245.612 524.54 258.084 523.224 261.268 523.227C264.452 523.23 275.334 524.566 277.456 523.506C279.153 522.659 279.575 519.262 279.574 517.67Z" fill="black"/>
<path d="M189.044 474.336L150.831 474.303C150.744 475.629 150.369 478.215 152.693 479.877C154.552 481.205 165.14 480.153 170.474 480.158C176.312 480.163 184.362 481.32 187.192 479.907C188.889 479.059 188.957 476.017 189.044 474.336Z" fill="black"/>
<path d="M189.543 437.184L175.472 429.476L174.428 449.113C174.165 451.678 172.842 457.073 170.719 457.071C168.066 457.068 165.411 455.474 165.13 438.224C164.906 424.425 164.851 422.745 164.852 423.629L151.843 416.452C151.32 425.475 150.222 444.527 150.013 448.561C149.804 452.594 150.294 466.518 150.565 472.975L189.044 472.744L189.543 437.184Z" fill="black"/>
<path d="M280.077 486.357L266.006 478.649L264.957 492.978C264.605 495.455 263.265 500.301 260.717 499.874C257.532 499.34 256.203 496.42 255.931 488.724C255.713 482.567 255.123 475.543 254.855 472.801L242.112 465.89C241.676 474.116 240.807 491.736 240.811 496.407C240.815 501.077 241.355 511.268 241.624 515.78L279.573 516.078L280.077 486.357Z" stroke="black"/>
<path d="M279.574 517.67L241.891 517.637C241.715 518.875 241.788 521.671 243.488 522.946C245.612 524.54 258.084 523.224 261.268 523.227C264.452 523.23 275.334 524.566 277.456 523.506C279.153 522.659 279.575 519.262 279.574 517.67Z" stroke="black"/>
<path d="M189.044 474.336L150.831 474.303C150.744 475.629 150.369 478.215 152.693 479.877C154.552 481.205 165.14 480.153 170.474 480.158C176.312 480.163 184.362 481.32 187.192 479.907C188.889 479.059 188.957 476.017 189.044 474.336Z" stroke="black"/>
<path d="M189.543 437.184L175.472 429.476L174.428 449.113C174.165 451.678 172.842 457.073 170.719 457.071C168.066 457.068 165.411 455.474 165.13 438.224C164.906 424.425 164.851 422.745 164.852 423.629L151.843 416.452C151.32 425.475 150.222 444.527 150.013 448.561C149.804 452.594 150.294 466.518 150.565 472.975L189.044 472.744L189.543 437.184Z" stroke="black"/>
<path d="M468.15 399.213L468.166 417.259L657.049 346.834L657.573 338.874L579.044 363.75C578.686 358.796 577.333 348.994 574.786 349.416C572.239 349.839 571.081 361.09 570.82 366.662L513.647 384.789L505.192 387.469L468.15 399.213Z" fill="black"/>
<path d="M404.727 399.424L404.742 417.469L466.308 417.522L466.293 399.477L443.205 399.192C443.112 393.619 442.235 382.526 439.476 382.735C436.716 382.945 435.505 393.789 435.244 399.185L404.727 399.424Z" fill="black"/>
<path d="M252.138 399.556L252.153 417.071L313.454 417.389L313.438 398.813L283.451 398.522C283.004 393.125 281.579 382.333 279.456 382.331C277.333 382.329 275.751 393.296 275.225 398.78L252.138 399.556Z" fill="black"/>
<path d="M60.4865 338.354L60.4935 346.315L250.03 416.538L250.014 399.023L212.852 386.784C212.847 381.299 212.147 370.277 209.387 370.063C206.627 369.848 205.415 379.17 205.153 383.858L147.818 365.763C147.636 360.279 146.582 349.256 143.822 349.041C141.062 348.826 140.027 358.326 139.854 363.102L60.4865 338.354Z" fill="black"/>
<path d="M513.647 384.789C513.334 379.703 512.07 369.636 509.523 370.059C506.975 370.481 505.575 381.842 505.192 387.469L513.647 384.789Z" fill="black"/>
<path d="M355.46 201.148C354.938 211.232 355.756 236.443 356.025 239.893C356.293 243.343 357.625 249.448 359.218 249.449C360.81 249.451 362.389 234.06 362.38 223.976C362.371 213.892 362.599 171.168 362.595 166.391C362.591 161.614 362.052 152.591 361.78 144.895C361.508 137.199 360.171 124.726 358.844 124.99C357.517 125.254 355.946 149.136 355.686 155.239C355.478 160.122 355.272 187.703 355.46 201.148Z" fill="black"/>
<path d="M513.647 384.789L570.82 366.662C571.081 361.09 572.239 349.839 574.786 349.416C577.333 348.994 578.686 358.796 579.044 363.75L657.573 338.874L657.049 346.834L468.166 417.259L468.15 399.213L505.192 387.47L513.647 384.789ZM513.647 384.789C513.334 379.703 512.07 369.636 509.523 370.059C506.975 370.481 505.575 381.842 505.192 387.47L513.647 384.789ZM513.647 384.789L505.192 387.47L513.647 384.789ZM60.4868 338.354L60.4937 346.315L250.03 416.538L250.015 399.023L212.852 386.784C212.847 381.299 212.148 370.277 209.388 370.063C206.628 369.848 205.415 379.17 205.154 383.858L147.818 365.763C147.636 360.279 146.583 349.256 143.823 349.041C141.063 348.826 140.027 358.326 139.854 363.102L60.4868 338.354ZM252.138 399.556L252.153 417.071L313.454 417.389L313.438 398.813L283.451 398.522C283.004 393.125 281.579 382.333 279.456 382.331C277.333 382.329 275.751 393.296 275.225 398.78L252.138 399.556ZM404.727 399.424L404.742 417.469L466.308 417.522L466.293 399.477L443.205 399.192C443.112 393.619 442.235 382.525 439.476 382.735C436.716 382.945 435.505 393.789 435.244 399.185L404.727 399.424ZM355.46 201.148C354.938 211.232 355.756 236.443 356.025 239.893C356.293 243.343 357.625 249.448 359.217 249.449C360.81 249.451 362.388 234.06 362.38 223.976C362.371 213.892 362.599 171.168 362.595 166.391C362.591 161.614 362.052 152.591 361.78 144.895C361.508 137.199 360.17 124.725 358.844 124.99C357.517 125.254 355.946 149.136 355.686 155.239C355.478 160.122 355.272 187.703 355.46 201.148Z" stroke="black"/>
</g>
<defs>
<clipPath id="clip0">
<rect width="507.703" height="508.588" fill="white" transform="translate(718.626 359.626) rotate(135)"/>
</clipPath>
</defs>
</svg>
