<svg width="1280" height="2805" viewBox="0 0 1280 2805" fill="none" xmlns="http://www.w3.org/2000/svg">
<path d="M751 699L760.5 689L770 699L760.5 709L751 699Z" stroke="#FFB635" stroke-width="2"/>
<path d="M126 185L135.5 175L145 185L135.5 195L126 185Z" stroke="#FFB635" stroke-width="2"/>
<path d="M145 1061L154.5 1051L164 1061L154.5 1071L145 1061Z" stroke="#FFB635" stroke-width="2"/>
<path d="M1161 1263L1170.5 1253L1180 1263L1170.5 1273L1161 1263Z" stroke="#FFB635" stroke-width="2"/>
<path d="M155 1844L164.5 1834L174 1844L164.5 1854L155 1844Z" stroke="#FFB635" stroke-width="2"/>
<path d="M958 2320L967.5 2310L977 2320L967.5 2330L958 2320Z" stroke="#FFB635" stroke-width="2"/>
<path d="M55 2624L64.5 2614L74 2624L64.5 2634L55 2624Z" stroke="#FFB635" stroke-width="2"/>
<path d="M94.1036 148.582L113.343 134.624M93.6746 123.502L114.193 135.502" stroke="#FFB635" stroke-width="2"/>
<path d="M281.452 769.482L304.084 762.216M288.861 745.518L304.617 763.315" stroke="#FFB635" stroke-width="2"/>
<path d="M1168.21 179L1162.21 202M1184.47 198.102L1161 201.861" stroke="#FFB635" stroke-width="2"/>
<path d="M58.679 1610.67L43.7006 1592.21M33.6591 1612.45L44.5319 1591.32" stroke="#FFB635" stroke-width="2"/>
<path d="M1027.15 2296.94L1006.65 2308.96M1025.14 2321.94L1005.89 2308" stroke="#FFB635" stroke-width="2"/>
<path d="M1194.57 1936.36L1175.47 1922.22M1170.79 1944.32L1176.05 1921.14" stroke="#FFB635" stroke-width="2"/>
<path d="M1134.64 724.327L1179.2 747.009M1127.63 662.241L1126.6 712.23M1122.76 728.938C1118.08 726.558 1116.22 720.838 1118.6 716.162C1120.98 711.486 1126.7 709.625 1131.38 712.005C1136.05 714.385 1137.91 720.105 1135.53 724.781C1133.15 729.457 1127.43 731.318 1122.76 728.938Z" stroke="#FFB635" stroke-width="2"/>
<path d="M1232.21 1310.14L1279.17 1292.99M1182 1272.94L1217.88 1307.77M1227.48 1321.98C1222.55 1323.77 1217.1 1321.24 1215.3 1316.31C1213.5 1311.38 1216.04 1305.93 1220.96 1304.13C1225.89 1302.33 1231.35 1304.86 1233.15 1309.79C1234.94 1314.72 1232.41 1320.18 1227.48 1321.98Z" stroke="#FFB635" stroke-width="2"/>
<path d="M31.6523 2095.99L80.251 2084.24M-14.0523 2053.39L17.6799 2092.03M25.6239 2107.22C20.5242 2108.46 15.3902 2105.32 14.1568 2100.22C12.9233 2095.12 16.0575 2089.99 21.1572 2088.76C26.2568 2087.52 31.3908 2090.66 32.6243 2095.76C33.8577 2100.86 30.7235 2105.99 25.6239 2107.22Z" stroke="#FFB635" stroke-width="2"/>
<path d="M952.978 2732.2L920.169 2769.93M1014.91 2740.46L966.663 2727.34M951.387 2719.55C954.83 2715.59 960.83 2715.17 964.79 2718.62C968.749 2722.06 969.167 2728.06 965.724 2732.02C962.282 2735.98 956.281 2736.4 952.322 2732.95C948.363 2729.51 947.944 2723.51 951.387 2719.55Z" stroke="#FFB635" stroke-width="2"/>
<path d="M148.928 64.8312L197.159 51.6516M101.989 23.5927L134.845 61.2824M143.232 76.2358C138.171 77.6188 132.947 74.637 131.564 69.5759C130.181 64.5147 133.163 59.2907 138.224 57.9077C143.285 56.5247 148.509 59.5065 149.892 64.5676C151.275 69.6288 148.294 74.8528 143.232 76.2358Z" stroke="#FFB635" stroke-width="2"/>
<path d="M48.2183 979.695L71.8162 935.614M-14 985.416L35.9574 987.479M52.582 991.672C50.1058 996.298 44.3486 998.04 39.723 995.564C35.0974 993.088 33.355 987.331 35.8312 982.705C38.3074 978.08 44.0646 976.337 48.6902 978.813C53.3158 981.29 55.0582 987.047 52.582 991.672Z" stroke="#FFB635" stroke-width="2"/>
<line x1="72.8343" y1="1598.45" x2="109.834" y2="1654.45" stroke="#FFB635" stroke-width="2"/>
<line x1="53.8343" y1="2091.45" x2="90.8343" y2="2147.45" stroke="#FFB635" stroke-width="2"/>
<line x1="280.526" y1="2656.04" x2="339.432" y2="2688.21" stroke="#FFB635" stroke-width="2"/>
<line x1="1220.48" y1="1853.12" x2="1279.39" y2="1885.29" stroke="#FFB635" stroke-width="2"/>
<line x1="990.313" y1="2726.38" x2="1055.11" y2="2743.86" stroke="#FFB635" stroke-width="2"/>
<line x1="284.479" y1="2651.12" x2="343.386" y2="2683.29" stroke="#FFB635" stroke-width="2"/>
<line x1="90.8343" y1="1611.45" x2="127.834" y2="1667.45" stroke="#FFB635" stroke-width="2"/>
<line x1="427.298" y1="1048.97" x2="471.214" y2="1099.72" stroke="#FFB635" stroke-width="2"/>
<line x1="479.091" y1="1393" x2="545.933" y2="1399.1" stroke="#FFB635" stroke-width="2"/>
<line x1="956.511" y1="702.321" x2="934.947" y2="765.882" stroke="#FFB635" stroke-width="2"/>
<line x1="1227.76" y1="533.346" x2="1271.67" y2="584.103" stroke="#FFB635" stroke-width="2"/>
<line x1="1182.67" y1="112.845" x2="1201.17" y2="177.362" stroke="#FFB635" stroke-width="2"/>
<line x1="71.0722" y1="8.20907" x2="114.949" y2="59.0006" stroke="#FFB635" stroke-width="2"/>
<line x1="23.3319" y1="352.216" x2="58.2533" y2="409.535" stroke="#FFB635" stroke-width="2"/>
<line x1="50.854" y1="380.48" x2="85.7754" y2="437.799" stroke="#FFB635" stroke-width="2"/>
<line x1="1249.96" y1="525.819" x2="1249.96" y2="592.938" stroke="#FFB635" stroke-width="2"/>
<line x1="273.756" y1="708.346" x2="317.673" y2="759.103" stroke="#FFB635" stroke-width="2"/>
<path d="M158 2461.1L187 2496.1M164.784 2467L259.784 2372M180.784 2488L237.784 2431" stroke="#FFB635" stroke-width="2"/>
<path d="M1232.01 2490.98L1277.26 2495.22M1240.97 2490.35L1240.97 2356M1267.14 2493.89L1267.14 2413.28" stroke="#FFB635" stroke-width="2"/>
<path d="M277.454 1926.75L312.88 1955.23M285.282 1931.17L359.316 1819.06M305.166 1948.54L349.587 1881.27" stroke="#FFB635" stroke-width="2"/>
<path d="M1255.01 1496.98L1300.26 1501.22M1263.97 1496.35L1263.97 1362M1290.14 1499.89L1290.14 1419.28" stroke="#FFB635" stroke-width="2"/>
<path d="M-35.6885 1148.43L4.55222 1169.56M-27.1569 1151.25L23.9386 1027M-4.30451 1164.47L26.3528 1089.92" stroke="#FFB635" stroke-width="2"/>
<path d="M927.664 1143.53L960.699 1112.31M933.105 1136.38L832.115 1047.77M953.018 1119.04L892.423 1065.88" stroke="#FFB635" stroke-width="2"/>
<path d="M267.683 463.265L312.844 458.125M276.329 460.81L248.741 329.323M302.661 458.897L286.108 380.005" stroke="#FFB635" stroke-width="2"/>
<path d="M889.275 124.79L876.275 145.79M873.829 126.707L891.293 144.171" stroke="#FFB635" stroke-width="2"/>
<path d="M153.447 1834L140.447 1855M138 1835.92L155.464 1853.38" stroke="#FFB635" stroke-width="2"/>
<path d="M630.447 2322L617.447 2343M615 2323.92L632.464 2341.38" stroke="#FFB635" stroke-width="2"/>
<path d="M1211.45 2448L1198.45 2469M1196 2449.92L1213.46 2467.38" stroke="#FFB635" stroke-width="2"/>
<path d="M706.447 1534L693.447 1555M691 1535.92L708.464 1553.38" stroke="#FFB635" stroke-width="2"/>
<path d="M1219.45 202L1206.45 223M1204 203.918L1221.46 221.382" stroke="#FFB635" stroke-width="2"/>
<path d="M1010.34 2084.67L985.342 2134.67M1015.66 2108.25L967.25 2080.3M1145.66 2218.25L1097.25 2190.3M1121.25 2211.3L959.253 2118.3" stroke="#FFB635" stroke-width="2"/>
<path d="M1216.78 450.163L1272.61 447.246M1234.67 433.903L1234.24 489.803M1266.23 266.559L1265.8 322.459M1272.23 291.22L1271.24 478.014" stroke="#FFB635" stroke-width="2"/>
<path d="M13.0884 2656.37L-11.9116 2706.37M18.4091 2679.95L-30.0032 2652M148.409 2789.95L99.9967 2762M124 2783L-38 2690" stroke="#FFB635" stroke-width="2"/>
</svg>
